<svg width="24" height="24" viewBox="0 0 24 24" fill="none" xmlns="http://www.w3.org/2000/svg">
<path d="M18.1386 3.53645H17.3926V2.78125C17.3926 2.34977 17.043 2 16.6117 2C16.1804 2 15.8308 2.34977 15.8308 2.78125V3.53645H8.16913V2.78125C8.16913 2.34977 7.81952 2 7.38823 2C6.95693 2 6.60732 2.34977 6.60732 2.78125V3.53645H5.86137C3.7322 3.53645 2 5.26941 2 7.39949V18.1369C2 20.267 3.7322 22 5.86137 22H18.1387C20.2678 22 22 20.267 22 18.1369V7.39949C22 5.26941 20.2678 3.53645 18.1386 3.53645ZM5.86137 5.09895H6.60732V6.62238C6.60732 7.05387 6.95693 7.40363 7.38823 7.40363C7.81952 7.40363 8.16913 7.05387 8.16913 6.62238V5.09895H15.8309V6.62238C15.8309 7.05387 16.1805 7.40363 16.6118 7.40363C17.0431 7.40363 17.3927 7.05387 17.3927 6.62238V5.09895H18.1387C19.4066 5.09895 20.4382 6.13098 20.4382 7.39949V8.14582H3.5618V7.39949C3.5618 6.13098 4.59338 5.09895 5.86137 5.09895ZM18.1386 20.4375H5.86137C4.59338 20.4375 3.5618 19.4055 3.5618 18.1369V9.70832H20.4382V18.1369C20.4382 19.4055 19.4066 20.4375 18.1386 20.4375ZM8.93703 12.7812C8.93703 13.2127 8.58742 13.5625 8.15613 13.5625H6.62036C6.18907 13.5625 5.83946 13.2127 5.83946 12.7812C5.83946 12.3498 6.18907 12 6.62036 12H8.15613C8.58738 12 8.93703 12.3498 8.93703 12.7812ZM18.1606 12.7812C18.1606 13.2127 17.811 13.5625 17.3797 13.5625H15.8439C15.4126 13.5625 15.063 13.2127 15.063 12.7812C15.063 12.3498 15.4126 12 15.8439 12H17.3797C17.8109 12 18.1606 12.3498 18.1606 12.7812ZM13.5444 12.7812C13.5444 13.2127 13.1947 13.5625 12.7634 13.5625H11.2277C10.7964 13.5625 10.4468 13.2127 10.4468 12.7812C10.4468 12.3498 10.7964 12 11.2277 12H12.7634C13.1947 12 13.5444 12.3498 13.5444 12.7812ZM8.93703 17.3906C8.93703 17.8221 8.58742 18.1719 8.15613 18.1719H6.62036C6.18907 18.1719 5.83946 17.8221 5.83946 17.3906C5.83946 16.9591 6.18907 16.6094 6.62036 16.6094H8.15613C8.58738 16.6094 8.93703 16.9591 8.93703 17.3906ZM18.1606 17.3906C18.1606 17.8221 17.811 18.1719 17.3797 18.1719H15.8439C15.4126 18.1719 15.063 17.8221 15.063 17.3906C15.063 16.9591 15.4126 16.6094 15.8439 16.6094H17.3797C17.8109 16.6094 18.1606 16.9591 18.1606 17.3906ZM13.5444 17.3906C13.5444 17.8221 13.1947 18.1719 12.7634 18.1719H11.2277C10.7964 18.1719 10.4468 17.8221 10.4468 17.3906C10.4468 16.9591 10.7964 16.6094 11.2277 16.6094H12.7634C13.1947 16.6094 13.5444 16.9591 13.5444 17.3906Z" fill="#747474"/>
</svg>
