<svg width="24" height="24" viewBox="0 0 24 24" fill="none" xmlns="http://www.w3.org/2000/svg">
<path d="M12 2C10.8314 2 9.7106 2.42143 8.88426 3.17157C8.05791 3.92172 7.59368 4.93913 7.59368 6V6.66667H6.98413C6.36586 6.66608 5.77117 6.88198 5.32384 7.26942C4.87652 7.65687 4.61105 8.186 4.58269 8.74667L4.00252 19.7133C3.98765 20.0082 4.03871 20.3028 4.15262 20.5793C4.26654 20.8558 4.44095 21.1085 4.66534 21.3222C4.88973 21.5359 5.15946 21.7061 5.45827 21.8226C5.75708 21.939 6.07877 21.9994 6.40397 22H17.596C17.9212 21.9994 18.2429 21.939 18.5417 21.8226C18.8405 21.7061 19.1103 21.5359 19.3347 21.3222C19.5591 21.1085 19.7335 20.8558 19.8474 20.5793C19.9613 20.3028 20.0124 20.0082 19.9975 19.7133L19.4173 8.74667C19.389 8.186 19.1235 7.65687 18.6762 7.26942C18.2288 6.88198 17.6341 6.66608 17.0159 6.66667H16.4063V6C16.4063 4.93913 15.9421 3.92172 15.1157 3.17157C14.2894 2.42143 13.1686 2 12 2ZM9.06245 6C9.06245 5.29276 9.37194 4.61448 9.92284 4.11438C10.4737 3.61428 11.2209 3.33333 12 3.33333C12.7791 3.33333 13.5263 3.61428 14.0772 4.11438C14.6281 4.61448 14.9376 5.29276 14.9376 6V6.66667H9.06245V6ZM17.9485 8.80667L18.5287 19.78C18.5333 19.8947 18.513 20.009 18.4689 20.1166C18.4248 20.2241 18.3578 20.3227 18.2717 20.4067C18.1838 20.4886 18.0787 20.5538 17.9627 20.5985C17.8467 20.6431 17.722 20.6663 17.596 20.6667H6.40397C6.27796 20.6663 6.1533 20.6431 6.03729 20.5985C5.92128 20.5538 5.81624 20.4886 5.72833 20.4067C5.64224 20.3227 5.57523 20.2241 5.53113 20.1166C5.48702 20.009 5.46669 19.8947 5.4713 19.78L6.05146 8.80667C6.0628 8.58912 6.16604 8.38391 6.33974 8.23368C6.51343 8.08345 6.74422 7.99976 6.98413 8H17.0159C17.2558 7.99976 17.4866 8.08345 17.6603 8.23368C17.834 8.38391 17.9372 8.58912 17.9485 8.80667Z" fill="white"/>
<path d="M8.59376 10.1268C8.99935 10.1268 9.32815 9.82831 9.32815 9.46012C9.32815 9.09193 8.99935 8.79346 8.59376 8.79346C8.18817 8.79346 7.85938 9.09193 7.85938 9.46012C7.85938 9.82831 8.18817 10.1268 8.59376 10.1268Z" fill="white"/>
<path d="M15.4063 10.1268C15.8119 10.1268 16.1407 9.82831 16.1407 9.46012C16.1407 9.09193 15.8119 8.79346 15.4063 8.79346C15.0007 8.79346 14.6719 9.09193 14.6719 9.46012C14.6719 9.82831 15.0007 10.1268 15.4063 10.1268Z" fill="white"/>
</svg>
