<svg width="24" height="24" viewBox="0 0 24 24" fill="none" xmlns="http://www.w3.org/2000/svg">
<path d="M12.7804 16.7285L21.6805 9.15369C21.8865 8.97849 22 8.74462 22 8.49525C22 8.24588 21.8865 8.01201 21.6805 7.83682L21.0252 7.27898C20.5982 6.916 19.9042 6.916 19.4779 7.27898L12.0041 13.6397L4.52209 7.27193C4.31608 7.09673 4.04145 7 3.7486 7C3.45543 7 3.1808 7.09673 2.97462 7.27193L2.31951 7.82976C2.11349 8.00509 2 8.23883 2 8.4882C2 8.73757 2.11349 8.97144 2.31951 9.14663L11.2277 16.7285C11.4344 16.9041 11.7103 17.0006 12.0037 17C12.2981 17.0006 12.5739 16.9041 12.7804 16.7285Z" fill="#747474"/>
</svg>
