<svg width="24" height="24" viewBox="0 0 24 24" fill="none" xmlns="http://www.w3.org/2000/svg">
<path d="M12 2C6.47254 2 2 6.47293 2 12C2 17.5275 6.47293 22 12 22C17.5275 22 22 17.5271 22 12C22 6.47254 17.5271 2 12 2ZM12 20.4375C7.33621 20.4375 3.5625 16.6635 3.5625 12C3.5625 7.33621 7.33652 3.5625 12 3.5625C16.6638 3.5625 20.4375 7.33652 20.4375 12C20.4375 16.6638 16.6635 20.4375 12 20.4375Z" fill="white"/>
<path d="M12 7.03424C11.5685 7.03424 11.2188 7.38401 11.2188 7.81549V12.8465C11.2188 13.278 11.5685 13.6277 12 13.6277C12.4315 13.6277 12.7812 13.278 12.7812 12.8465V7.81549C12.7812 7.38401 12.4315 7.03424 12 7.03424Z" fill="white"/>
<path d="M12 16.6938C12.5825 16.6938 13.0547 16.2216 13.0547 15.6391C13.0547 15.0566 12.5825 14.5844 12 14.5844C11.4175 14.5844 10.9453 15.0566 10.9453 15.6391C10.9453 16.2216 11.4175 16.6938 12 16.6938Z" fill="white"/>
</svg>
