<svg width="24" height="24" viewBox="0 0 24 24" fill="none" xmlns="http://www.w3.org/2000/svg">
<path d="M19.2911 12.506H11.496V4.71258C11.496 4.39765 11.244 4.14571 10.929 4.14571C6.00672 4.14571 2 8.15159 2 13.0729C2 17.9941 6.00672 22 10.929 22C15.8513 22 19.858 17.9941 19.858 13.0729C19.858 12.7621 19.6018 12.506 19.2911 12.506ZM10.929 20.8663C6.63251 20.8663 3.13398 17.3685 3.13398 13.0729C3.13398 8.9662 6.32591 5.59017 10.362 5.30044V13.0729C10.362 13.3878 10.614 13.6397 10.929 13.6397H18.7031C18.4133 17.675 15.0365 20.8663 10.929 20.8663Z" fill="white"/>
<path d="M21.9999 10.8978C21.9915 8.73105 21.1977 6.64413 19.7656 5.01911C18.0688 3.10015 15.6328 2 13.0709 2C12.7559 2 12.5039 2.25194 12.5039 2.56687V10.9271C12.5039 11.2421 12.7559 11.494 13.0709 11.494H21.4329C21.7479 11.494 21.9999 11.2421 21.9999 10.9271C21.9999 10.9187 21.9999 10.9104 21.9999 10.8978ZM13.6379 10.3645V3.15893C15.6622 3.3059 17.5606 4.24228 18.913 5.77493C20.047 7.05564 20.7189 8.66807 20.8449 10.3645H13.6379Z" fill="white"/>
</svg>
