<svg width="21" height="21" viewBox="0 0 21 21" fill="none" xmlns="http://www.w3.org/2000/svg">
<path d="M7.25 10H2.75C1.23363 10 0 8.76638 0 7.25V2.75C0 1.23363 1.23363 0 2.75 0H7.25C8.76638 0 10 1.23363 10 2.75V7.25C10 8.76638 8.76638 10 7.25 10ZM2.75 1.33333C1.96883 1.33333 1.33333 1.96883 1.33333 2.75V7.25C1.33333 8.03117 1.96883 8.66667 2.75 8.66667H7.25C8.03117 8.66667 8.66667 8.03117 8.66667 7.25V2.75C8.66667 1.96883 8.03117 1.33333 7.25 1.33333H2.75Z" fill="white"/>
<path d="M18.25 10H13.75C12.2336 10 11 8.76638 11 7.25V2.75C11 1.23363 12.2336 0 13.75 0H18.25C19.7664 0 21 1.23363 21 2.75V7.25C21 8.76638 19.7664 10 18.25 10ZM13.75 1.33333C12.9688 1.33333 12.3333 1.96883 12.3333 2.75V7.25C12.3333 8.03117 12.9688 8.66667 13.75 8.66667H18.25C19.0312 8.66667 19.6667 8.03117 19.6667 7.25V2.75C19.6667 1.96883 19.0312 1.33333 18.25 1.33333H13.75Z" fill="white"/>
<path d="M7.25 21H2.75C1.23363 21 0 19.7664 0 18.25V13.75C0 12.2336 1.23363 11 2.75 11H7.25C8.76638 11 10 12.2336 10 13.75V18.25C10 19.7664 8.76638 21 7.25 21ZM2.75 12.3333C1.96883 12.3333 1.33333 12.9688 1.33333 13.75V18.25C1.33333 19.0312 1.96883 19.6667 2.75 19.6667H7.25C8.03117 19.6667 8.66667 19.0312 8.66667 18.25V13.75C8.66667 12.9688 8.03117 12.3333 7.25 12.3333H2.75Z" fill="white"/>
<path d="M18.25 21H13.75C12.2336 21 11 19.7664 11 18.25V13.75C11 12.2336 12.2336 11 13.75 11H18.25C19.7664 11 21 12.2336 21 13.75V18.25C21 19.7664 19.7664 21 18.25 21ZM13.75 12.3333C12.9688 12.3333 12.3333 12.9688 12.3333 13.75V18.25C12.3333 19.0312 12.9688 19.6667 13.75 19.6667H18.25C19.0312 19.6667 19.6667 19.0312 19.6667 18.25V13.75C19.6667 12.9688 19.0312 12.3333 18.25 12.3333H13.75Z" fill="white"/>
</svg>
