<svg width="24" height="24" viewBox="0 0 24 24" fill="none" xmlns="http://www.w3.org/2000/svg">
<path d="M12.6276 22H11.3724C10.3572 22 9.53121 21.1741 9.53121 20.1589V19.7342C9.09961 19.5963 8.68027 19.4223 8.27742 19.2138L7.97648 19.5147C7.24762 20.2445 6.08008 20.2231 5.37238 19.5145L4.48523 18.6273C3.77629 17.9192 3.7559 16.752 4.48547 16.0232L4.78617 15.7225C4.5777 15.3197 4.40367 14.9004 4.26574 14.4688H3.84113C2.82598 14.4688 2 13.6428 2 12.6276V11.3724C2 10.3572 2.82598 9.53125 3.84117 9.53125H4.26578C4.40371 9.09961 4.57773 8.68031 4.78621 8.27746L4.48527 7.97656C3.75613 7.2482 3.77625 6.08094 4.48551 5.37246L5.37273 4.48527C6.08207 3.77496 7.24934 3.75723 7.9768 4.48551L8.27746 4.78617C8.68031 4.57773 9.09965 4.40367 9.53125 4.26574V3.84113C9.53125 2.82594 10.3572 2 11.3724 2H12.6276C13.6428 2 14.4688 2.82594 14.4688 3.84113V4.26578C14.9004 4.40367 15.3197 4.57773 15.7225 4.78621L16.0235 4.48527C16.7523 3.75551 17.9199 3.77691 18.6276 4.48555L19.5147 5.37266C20.2237 6.08082 20.2441 7.24797 19.5145 7.97676L19.2138 8.27746C19.4223 8.68031 19.5963 9.09957 19.7342 9.53125H20.1588C21.174 9.53125 22 10.3572 22 11.3724V12.6276C22 13.6428 21.174 14.4688 20.1588 14.4688H19.7342C19.5963 14.9004 19.4223 15.3197 19.2138 15.7225L19.5147 16.0235C20.2439 16.7518 20.2237 17.9191 19.5145 18.6276L18.6273 19.5148C17.9179 20.2251 16.7507 20.2428 16.0232 19.5145L15.7225 19.2139C15.3197 19.4223 14.9004 19.5964 14.4688 19.7343V20.1589C14.4688 21.1741 13.6428 22 12.6276 22ZM8.47332 17.9832C9.03297 18.3142 9.63531 18.5642 10.2636 18.7264C10.5223 18.7931 10.7031 19.0265 10.7031 19.2937V20.1589C10.7031 20.5279 11.0034 20.8281 11.3724 20.8281H12.6276C12.9966 20.8281 13.2969 20.5279 13.2969 20.1589V19.2937C13.2969 19.0265 13.4777 18.7931 13.7364 18.7264C14.3647 18.5642 14.9671 18.3142 15.5267 17.9832C15.757 17.847 16.0502 17.8841 16.2393 18.0732L16.8521 18.6861C17.1164 18.9506 17.5407 18.9445 17.7984 18.6864L18.6862 17.7986C18.9433 17.5418 18.9519 17.1175 18.6864 16.8523L18.0733 16.2393C17.8842 16.0501 17.8471 15.7569 17.9833 15.5267C18.3143 14.9671 18.5643 14.3647 18.7264 13.7364C18.7932 13.4777 19.0266 13.2969 19.2938 13.2969H20.1589C20.5279 13.2969 20.8282 12.9967 20.8282 12.6277V11.3724C20.8282 11.0034 20.5279 10.7032 20.1589 10.7032H19.2938C19.0265 10.7032 18.7932 10.5224 18.7264 10.2637C18.5643 9.63535 18.3142 9.03301 17.9833 8.4734C17.8471 8.24316 17.8842 7.94996 18.0733 7.76082L18.6862 7.14797C18.9511 6.88336 18.9442 6.45914 18.6864 6.20168L17.7987 5.31398C17.5414 5.05633 17.117 5.04879 16.8524 5.31375L16.2394 5.92684C16.0502 6.11602 15.757 6.15305 15.5268 6.01688C14.9671 5.6859 14.3648 5.43586 13.7365 5.27371C13.4777 5.20695 13.297 4.97359 13.297 4.70637V3.84113C13.297 3.47211 12.9967 3.17188 12.6277 3.17188H11.3725C11.0034 3.17188 10.7032 3.47211 10.7032 3.84113V4.70629C10.7032 4.97352 10.5224 5.20688 10.2636 5.27363C9.63535 5.43578 9.03301 5.68582 8.47336 6.0168C8.24305 6.15293 7.94988 6.1159 7.76074 5.92676L7.14793 5.31391C6.88371 5.04938 6.45938 5.05551 6.20168 5.31363L5.31391 6.20137C5.0568 6.45816 5.0482 6.8825 5.31367 7.14766L5.92676 7.76074C6.1159 7.94988 6.15293 8.24309 6.0168 8.47332C5.68582 9.03293 5.43582 9.63527 5.27367 10.2636C5.20688 10.5223 4.97352 10.7031 4.70633 10.7031H3.84117C3.47215 10.7031 3.17188 11.0034 3.17188 11.3724V12.6276C3.17188 12.9966 3.47215 13.2969 3.84117 13.2969H4.70629C4.97352 13.2969 5.20684 13.4777 5.27363 13.7364C5.43578 14.3647 5.68582 14.967 6.01676 15.5266C6.15289 15.7569 6.11586 16.0501 5.92672 16.2392L5.31387 16.8521C5.04895 17.1167 5.05586 17.5409 5.31363 17.7984L6.20133 18.6861C6.45863 18.9437 6.88301 18.9513 7.14762 18.6863L7.76066 18.0732C7.90004 17.9339 8.19 17.8156 8.47332 17.9832Z" fill="white"/>
<path d="M12 16.3516C9.60051 16.3516 7.64844 14.3995 7.64844 12C7.64844 9.60055 9.60051 7.64844 12 7.64844C14.3995 7.64844 16.3516 9.60055 16.3516 12C16.3516 14.3995 14.3995 16.3516 12 16.3516ZM12 8.82031C10.2467 8.82031 8.82031 10.2467 8.82031 12C8.82031 13.7533 10.2467 15.1797 12 15.1797C13.7533 15.1797 15.1797 13.7533 15.1797 12C15.1797 10.2467 13.7533 8.82031 12 8.82031Z" fill="white"/>
</svg>
