<svg width="24" height="24" viewBox="0 0 24 24" fill="none" xmlns="http://www.w3.org/2000/svg">
<path d="M21.8102 20.9119L16.6466 15.8308C17.9988 14.3616 18.8296 12.4187 18.8296 10.2807C18.8289 5.7071 15.0618 2 10.4145 2C5.76713 2 2 5.7071 2 10.2807C2 14.8543 5.76713 18.5614 10.4145 18.5614C12.4224 18.5614 14.2641 17.8668 15.7107 16.7122L20.8944 21.8134C21.147 22.0622 21.5571 22.0622 21.8096 21.8134C22.0628 21.5646 22.0628 21.1607 21.8102 20.9119ZM10.4145 17.2873C6.48231 17.2873 3.29468 14.1504 3.29468 10.2807C3.29468 6.41101 6.48231 3.27403 10.4145 3.27403C14.3467 3.27403 17.5343 6.41101 17.5343 10.2807C17.5343 14.1504 14.3467 17.2873 10.4145 17.2873Z" fill="#747474"/>
</svg>
