<svg width="24" height="24" viewBox="0 0 24 24" fill="none" xmlns="http://www.w3.org/2000/svg">
<path d="M11.9977 2C9.0201 2 6.59766 4.36566 6.59766 7.27344C6.59766 10.1812 9.0201 12.5469 11.9977 12.5469C14.9752 12.5469 17.3977 10.1812 17.3977 7.27344C17.3977 4.36566 14.9752 2 11.9977 2ZM11.9977 11.375C9.68178 11.375 7.79766 9.53504 7.79766 7.27344C7.79766 5.01184 9.68178 3.17188 11.9977 3.17188C14.3135 3.17188 16.1977 5.01184 16.1977 7.27344C16.1977 9.53504 14.3135 11.375 11.9977 11.375Z" fill="white"/>
<path d="M18.7186 15.992C17.2402 14.5261 15.2804 13.7188 13.2 13.7188H10.8C8.71968 13.7188 6.75976 14.5261 5.28136 15.992C3.8102 17.4507 3 19.3763 3 21.4141C3 21.7377 3.26864 22 3.6 22H20.4C20.7314 22 21 21.7377 21 21.4141C21 19.3763 20.1898 17.4507 18.7186 15.992ZM4.2264 20.8281C4.527 17.5045 7.36044 14.8906 10.8 14.8906H13.2C16.6396 14.8906 19.473 17.5045 19.7736 20.8281H4.2264Z" fill="white"/>
</svg>
